<svg id="np_store_1358255_000000" xmlns="http://www.w3.org/2000/svg" width="66.082" height="57.339" viewBox="0 0 66.082 57.339">
  <path id="np_store_1358255_000000-2" data-name="np_store_1358255_000000" d="M6.957,11.827H59.264V7H6.957ZM65.5,27.493H46.273L42.646,14.024H59.36ZM21.653,35.785H44.43V29.577H21.653ZM40.486,14.024l3.627,13.469H21.97L25.6,14.024Zm-33.9,0H23.436L19.809,27.493H.566ZM0,29.576v6.208H19.564V29.576Zm46.518,0v6.208H66.082V29.576ZM34.085,56.365H54.733V44.044H34.085Zm22.734,1.04a1.043,1.043,0,0,1-1.043,1.043H33.042A1.043,1.043,0,0,1,32,57.406V43a1.041,1.041,0,0,1,1.043-1.04H55.775A1.041,1.041,0,0,1,56.818,43Zm5.8-19.54H3.506V64.339H10.12V49.806a7.86,7.86,0,0,1,15.721,0V64.339H62.622Zm-42.628,18.2a1.847,1.847,0,1,1,1.851-1.848,1.852,1.852,0,0,1-1.851,1.848M17.979,44.044A5.775,5.775,0,0,0,12.2,49.806V64.339H23.754V49.806a5.775,5.775,0,0,0-5.774-5.762" transform="translate(0 -7)" fill="#ffcd00" fill-rule="evenodd"/>
</svg>
