<svg id="Component_44_1" data-name="Component 44 – 1" xmlns="http://www.w3.org/2000/svg" xmlns:xlink="http://www.w3.org/1999/xlink" width="93" height="32.086" viewBox="0 0 93 32.086">
  <defs>
    <clipPath id="clip-path">
      <rect id="Rectangle_2294" data-name="Rectangle 2294" width="93" height="27" transform="translate(-0.467 0.02)" fill="none"/>
    </clipPath>
  </defs>
  <path id="Path_664" data-name="Path 664" d="M49.554,34.433l-.349.2-.069.042-.825-1.454.418-.238.042.069Z" transform="translate(-36.973 -25.793)" fill="#fff"/>
  <path id="Path_665" data-name="Path 665" d="M53.7,42.143l-.492.275-.037-.069-1.554-2.732.069-.037.069-.042.349-.2,1.517,2.664.037.069Z" transform="translate(-39.526 -30.701)" fill="#fff"/>
  <path id="Path_666" data-name="Path 666" d="M48.831,34.4l-.069.042-.069.037-.867-1.517.491-.28.037.069.042.069-.354.2Z" transform="translate(-36.598 -25.561)" fill="#fff"/>
  <path id="Path_667" data-name="Path 667" d="M88.54,92.693l-.492.412-3.182-3.816.492-.412Z" transform="translate(-65.176 -68.92)" fill="#fff"/>
  <path id="Path_668" data-name="Path 668" d="M100.07,75.9l-.111.629-6.369-1.11.116-.629Z" transform="translate(-71.906 -58.051)" fill="#fff"/>
  <path id="Path_669" data-name="Path 669" d="M83.926,30.183l-.571,1.564-.074-.026-.307-.111-.074-.027.571-1.564Z" transform="translate(-63.66 -23.508)" fill="#fff"/>
  <path id="Path_670" data-name="Path 670" d="M83.174,29.579l-.6,1.638.074.027.074.027.544-1.491.307.111-.544,1.49.074.027.074.032.6-1.644Z" transform="translate(-63.41 -23.17)" fill="#fff"/>
  <path id="Path_671" data-name="Path 671" d="M79.448,36.973,78.343,40l-.6-.217.032-.079,1.073-2.955.074.026.074.027.307.111.074.026Z" transform="translate(-59.68 -28.703)" fill="#fff"/>
  <path id="Path_672" data-name="Path 672" d="M107.47,56.449l-1.57.571-.027-.074-.111-.307-.026-.074L107.3,56Z" transform="translate(-81.279 -43.555)" fill="#fff"/>
  <path id="Path_673" data-name="Path 673" d="M107.258,55.538l-1.638.6.053.148,1.49-.539.111.3-1.491.544.053.148,1.644-.6Z" transform="translate(-81.19 -43.197)" fill="#fff"/>
  <path id="Path_674" data-name="Path 674" d="M95.59,58.755l-3.029,1.1-.222-.6,3.034-1.1.053.148.111.307Z" transform="translate(-70.944 -45.215)" fill="#fff"/>
  <path id="Path_675" data-name="Path 675" d="M100.474,96.335l-.312.37-1.274-1.073.053-.064.206-.248.053-.058Z" transform="translate(-75.994 -73.848)" fill="#fff"/>
  <path id="Path_676" data-name="Path 676" d="M99.091,94.984l-.053.063-.053.058,1.216,1.02-.212.248-1.21-1.02-.053.064-.048.058,1.332,1.126.412-.492Z" transform="translate(-75.834 -73.633)" fill="#fff"/>
  <path id="Path_677" data-name="Path 677" d="M90.755,87.952l-.053.063-.053.058-.206.248-.053.064-.048.058-2.468-2.082.412-.492Z" transform="translate(-67.498 -66.6)" fill="#fff"/>
  <path id="Path_678" data-name="Path 678" d="M77.23,110.163l-.476.079-.285-1.644.079-.011.322-.058.074-.011Z" transform="translate(-58.697 -84.076)" fill="#fff"/>
  <path id="Path_679" data-name="Path 679" d="M76.774,108.45l-.079.015-.074.011.27,1.57-.322.053-.27-1.564-.079.01-.074.016.3,1.723.629-.111Z" transform="translate(-58.447 -84.023)" fill="#fff"/>
  <path id="Path_680" data-name="Path 680" d="M74.917,97.722l-.079.015-.074.011-.322.058-.079.01-.074.016-.55-3.176.629-.111Z" transform="translate(-56.592 -73.293)" fill="#fff"/>
  <path id="Path_681" data-name="Path 681" d="M63.059,108.557l-.3,1.638-.476-.085.3-1.638.074.011.322.058Z" transform="translate(-47.756 -84.039)" fill="#fff"/>
  <path id="Path_682" data-name="Path 682" d="M62.737,108.5l-.079-.016-.285,1.564-.317-.058.28-1.564-.074-.011-.079-.016-.312,1.718.634.116.307-1.718Z" transform="translate(-47.434 -83.986)" fill="#fff"/>
  <path id="Path_683" data-name="Path 683" d="M64.435,94.634l-.571,3.176-.074-.016-.079-.016-.322-.058-.074-.01-.079-.016.571-3.171Z" transform="translate(-48.487 -73.277)" fill="#fff"/>
  <path id="Path_684" data-name="Path 684" d="M35.886,86.245l-.063.053L30.812,90.4l-.407-.492.058-.053,5.016-4.107Z" transform="translate(-23.156 -66.51)" fill="#fff"/>
  <path id="Path_685" data-name="Path 685" d="M28.959,77.831l-1.644.28-.079-.476,1.644-.28.011.074.058.317Z" transform="translate(-20.711 -60.031)" fill="#fff"/>
  <path id="Path_686" data-name="Path 686" d="M28.637,77.545l-.011-.084-1.57.27L27,77.414l1.564-.27-.011-.074-.016-.085-1.723.3.111.634,1.723-.3Z" transform="translate(-20.389 -59.746)" fill="#fff"/>
  <path id="Path_687" data-name="Path 687" d="M37.649,75.254l-3.177.544-.016-.074-.01-.085-.058-.317-.011-.074-.016-.085,3.176-.539Z" transform="translate(-26.209 -57.924)" fill="#fff"/>
  <path id="Path_688" data-name="Path 688" d="M63.482,29.794,63.4,29.8l-.317.053-.079.016-.28-1.649.476-.079Z" transform="translate(-48.094 -22.063)" fill="#fff"/>
  <path id="Path_689" data-name="Path 689" d="M62.978,27.83l-.011-.079-.634.106.291,1.723.079-.011.079-.016-.264-1.565.317-.058L63.1,29.5l.079-.011.079-.016Z" transform="translate(-47.791 -21.758)" fill="#fff"/>
  <path id="Path_690" data-name="Path 690" d="M64.779,38.471l-.634.106-.01-.074-.529-3.1.079-.011.079-.016.317-.053.079-.011.079-.016Z" transform="translate(-48.772 -27.578)" fill="#fff"/>
  <rect id="Rectangle_2271" data-name="Rectangle 2271" width="4.812" height="0.483" transform="translate(19.814 11.889) rotate(-49.969)" fill="#fff"/>
  <rect id="Rectangle_2272" data-name="Rectangle 2272" width="4.812" height="0.483" transform="matrix(0.867, -0.499, 0.499, 0.867, 21.068, 13.256)" fill="#fff"/>
  <rect id="Rectangle_2273" data-name="Rectangle 2273" width="0.483" height="4.812" transform="translate(21.9 16.379) rotate(-89.892)" fill="#fff"/>
  <rect id="Rectangle_2274" data-name="Rectangle 2274" width="0.483" height="4.812" transform="translate(21.492 18.191) rotate(-69.894)" fill="#fff"/>
  <rect id="Rectangle_2275" data-name="Rectangle 2275" width="0.483" height="4.812" transform="translate(18.148 21.23) rotate(-19.823)" fill="#fff"/>
  <rect id="Rectangle_2276" data-name="Rectangle 2276" width="4.812" height="0.483" transform="translate(12.832 25.566) rotate(-69.774)" fill="#fff"/>
  <rect id="Rectangle_2277" data-name="Rectangle 2277" width="4.812" height="0.483" transform="matrix(0.503, -0.864, 0.864, 0.503, 11.248, 24.775)" fill="#fff"/>
  <rect id="Rectangle_2278" data-name="Rectangle 2278" width="0.483" height="4.812" transform="matrix(0.179, -0.984, 0.984, 0.179, 6.539, 14.549)" fill="#fff"/>
  <rect id="Rectangle_2279" data-name="Rectangle 2279" width="0.483" height="4.812" transform="translate(6.967 12.83) rotate(-69.688)" fill="#fff"/>
  <rect id="Rectangle_2280" data-name="Rectangle 2280" width="0.483" height="4.812" transform="matrix(0.647, -0.762, 0.762, 0.647, 8.676, 9.742)" fill="#fff"/>
  <rect id="Rectangle_2281" data-name="Rectangle 2281" width="0.768" height="7.648" transform="translate(16.181)" fill="#fff"/>
  <rect id="Rectangle_2282" data-name="Rectangle 2282" width="7.648" height="0.768" transform="matrix(0.174, -0.985, 0.985, 0.174, 17.662, 7.711)" fill="#fff"/>
  <rect id="Rectangle_2283" data-name="Rectangle 2283" width="7.648" height="0.768" transform="translate(21.728 9.391) rotate(-49.961)" fill="#fff"/>
  <rect id="Rectangle_2284" data-name="Rectangle 2284" width="7.648" height="0.768" transform="translate(23.722 11.564) rotate(-29.937)" fill="#fff"/>
  <rect id="Rectangle_2285" data-name="Rectangle 2285" width="0.768" height="7.488" transform="matrix(0.002, -1, 1, 0.002, 25.045, 16.523)" fill="#fff"/>
  <path id="Path_691" data-name="Path 691" d="M105.468,84.032l.264-.721,7,2.553-.264.721Z" transform="translate(-81.072 -64.625)" fill="#fff"/>
  <path id="Path_692" data-name="Path 692" d="M102.452,89.964l.385-.664,6.21,3.59-.385.664Z" transform="translate(-78.744 -69.246)" fill="#fff"/>
  <path id="Path_693" data-name="Path 693" d="M88.2,103.865l.666-.382,3.611,6.276-.666.382Z" transform="translate(-67.75 -80.189)" fill="#fff"/>
  <path id="Path_694" data-name="Path 694" d="M82.2,106.729l.722-.26,2.446,6.746-.722.26Z" transform="translate(-63.119 -82.494)" fill="#fff"/>
  <rect id="Rectangle_2286" data-name="Rectangle 2286" width="7.348" height="0.768" transform="translate(10.734 30.848) rotate(-69.769)" fill="#fff"/>
  <rect id="Rectangle_2287" data-name="Rectangle 2287" width="7.298" height="0.768" transform="matrix(0.503, -0.864, 0.864, 0.503, 8.289, 29.566)" fill="#fff"/>
  <rect id="Rectangle_2288" data-name="Rectangle 2288" width="7.648" height="0.768" transform="translate(1.256 21.209) rotate(-19.724)" fill="#fff"/>
  <rect id="Rectangle_2289" data-name="Rectangle 2289" width="0.768" height="7.648" transform="matrix(0.179, -0.984, 0.984, 0.179, 0.631, 13.619)" fill="#fff"/>
  <rect id="Rectangle_2290" data-name="Rectangle 2290" width="0.768" height="7.648" transform="matrix(0.347, -0.938, 0.938, 0.347, 1.308, 10.887)" fill="#fff"/>
  <rect id="Rectangle_2291" data-name="Rectangle 2291" width="0.768" height="7.648" transform="translate(4.025 5.98) rotate(-49.658)" fill="#fff"/>
  <path id="Path_695" data-name="Path 695" d="M39.275,16.563l-.127.074-.349.2-.069.042-.069.037-.053.032-2.421-4.255-1.364-2.394.666-.38,1.364,2.394Z" transform="translate(-26.567 -7.996)" fill="#fff"/>
  <rect id="Rectangle_2292" data-name="Rectangle 2292" width="7.648" height="0.768" transform="translate(5.853 28.191) rotate(-49.756)" fill="#fff"/>
  <rect id="Rectangle_2293" data-name="Rectangle 2293" width="0.768" height="7.648" transform="matrix(0.77, -0.638, 0.638, 0.77, 5.98, 3.953)" fill="#fff"/>
  <path id="Path_696" data-name="Path 696" d="M85.662,5.481l-2.616,7.183-.063-.021-.074-.032-.074-.026-.307-.111-.074-.027-.074-.026-.058-.021,2.616-7.183Z" transform="translate(-63.213 -4.373)" fill="#fff"/>
  <path id="Path_697" data-name="Path 697" d="M112.98,47.211l-7.193,2.606-.021-.058-.053-.148L105.6,49.3l-.053-.148-.021-.058,7.188-2.606Z" transform="translate(-81.117 -36.219)" fill="#fff"/>
  <path id="Path_698" data-name="Path 698" d="M104.831,99.7l-.491.587-5.846-4.926.042-.048.048-.058.053-.064.206-.248.053-.058.053-.063.037-.048Z" transform="translate(-75.692 -73.473)" fill="#fff"/>
  <path id="Path_699" data-name="Path 699" d="M76.56,108.413l-.079.016-.074.011-.322.058-.079.011-.074.016-.064.011,1.3,7.537.761-.132L76.623,108.4Z" transform="translate(-58.233 -83.986)" fill="#fff"/>
  <path id="Path_700" data-name="Path 700" d="M57.035,115.884l.756.137,1.353-7.526-.064-.011-.074-.016-.079-.016-.322-.058-.074-.011-.079-.016-.063-.01Z" transform="translate(-43.703 -83.951)" fill="#fff"/>
  <path id="Path_701" data-name="Path 701" d="M8.992,77.486l-7.537,1.29-.132-.756L8.86,76.73l.011.058.016.085.011.074.058.317.011.084.016.074Z" transform="translate(-0.719 -59.549)" fill="#fff"/>
  <path id="Path_702" data-name="Path 702" d="M59.787,9.774l-.063.011-.079.016-.079.011-.317.053-.079.016-.079.011-.063.011L57.752,2.359l.756-.127Z" transform="translate(-44.256 -2.07)" fill="#fff"/>
  <g id="Group_1189" data-name="Group 1189" transform="translate(0.467 2.066)">
    <g id="Group_1188" data-name="Group 1188" clip-path="url(#clip-path)">
      <path id="Path_703" data-name="Path 703" d="M78.4,3.879l1.356.239.525-2.973Q79.616.994,78.929.9l-.512,2.9-.014.078" transform="translate(-60.656 -3.106)" fill="#fff"/>
      <path id="Path_704" data-name="Path 704" d="M97.884,11.208l1.192.689L100.56,9.33c-.384-.251-.777-.488-1.183-.705l-1.454,2.515-.04.069" transform="translate(-75.687 -9.068)" fill="#fff"/>
      <path id="Path_705" data-name="Path 705" d="M106.55,17.749l1.054.886,1.884-2.242q-.5-.471-1.043-.9L106.6,17.689l-.051.061" transform="translate(-82.373 -14.368)" fill="#fff"/>
      <path id="Path_706" data-name="Path 706" d="M128.577,58.807l2.726-.476c-.053-.459-.122-.914-.212-1.36l-2.751.481.237,1.356" transform="translate(-99.185 -46.37)" fill="#fff"/>
      <path id="Path_707" data-name="Path 707" d="M128.536,79.429l-.242,1.355,2.647.472c.1-.444.194-.894.261-1.351l-2.667-.475" transform="translate(-99.15 -63.697)" fill="#fff"/>
      <path id="Path_708" data-name="Path 708" d="M120.308,100.089l2.269,1.317c.251-.383.488-.776.707-1.181L121,98.9l-.691,1.19" transform="translate(-92.988 -78.719)" fill="#fff"/>
      <path id="Path_709" data-name="Path 709" d="M107.444,115.131l-1.057.882L108.041,118q.549-.416,1.062-.876l-1.608-1.927-.051-.061" transform="translate(-82.247 -91.243)" fill="#fff"/>
      <path id="Path_710" data-name="Path 710" d="M88.21,126.631l.872,2.419c.44-.137.871-.3,1.294-.469l-.871-2.417-1.3.467" transform="translate(-68.223 -99.756)" fill="#fff"/>
      <path id="Path_711" data-name="Path 711" d="M67.947,130.644l-.009,2.577c.225.009.449.017.676.017s.468-.008.7-.018l.009-2.572-1.377,0" transform="translate(-52.582 -103.212)" fill="#fff"/>
      <path id="Path_712" data-name="Path 712" d="M46.366,126.481,45.074,126l-.906,2.46c.424.172.854.33,1.295.467l.876-2.377.027-.074" transform="translate(-34.242 -99.633)" fill="#fff"/>
      <path id="Path_713" data-name="Path 713" d="M34.614,121.176l-1.333,2.288q.582.365,1.2.68l1.326-2.275-1.189-.693" transform="translate(-25.842 -95.907)" fill="#fff"/>
      <path id="Path_714" data-name="Path 714" d="M18.083,108.285l-.88-1.059-2.089,1.738q.426.542.894,1.047l2.014-1.675.061-.051" transform="translate(-11.825 -85.144)" fill="#fff"/>
      <path id="Path_715" data-name="Path 715" d="M10.768,98.534,8.37,99.9c.217.406.453.8.7,1.184l2.378-1.359-.683-1.195" transform="translate(-6.622 -78.438)" fill="#fff"/>
      <path id="Path_716" data-name="Path 716" d="M2.888,70.123,2.9,68.747.014,68.732c-.006.18-.014.36-.014.541q0,.42.021.835l2.788.015h.079" transform="translate(-0.164 -55.444)" fill="#fff"/>
      <path id="Path_717" data-name="Path 717" d="M6.4,45.49,3.622,44.462c-.172.424-.33.855-.466,1.3L5.92,46.781,6.4,45.49" transform="translate(-2.599 -36.718)" fill="#fff"/>
      <path id="Path_718" data-name="Path 718" d="M16.9,26.382l.891-1.049-2.3-1.952c-.309.339-.6.694-.881,1.058L16.84,26.33l.061.051" transform="translate(-11.439 -20.452)" fill="#fff"/>
      <path id="Path_719" data-name="Path 719" d="M34.557,11.488l1.2-.681L34.248,8.161q-.613.318-1.194.686l1.463,2.573.039.069" transform="translate(-25.667 -8.71)" fill="#fff"/>
      <path id="Path_720" data-name="Path 720" d="M46.537,6.251,45.511,3.374c-.44.137-.871.294-1.295.467L45.24,6.713l1.3-.462" transform="translate(-34.279 -5.017)" fill="#fff"/>
      <path id="Path_721" data-name="Path 721" d="M181.535,49.794c-1.186,1.9-2.686,2.821-5.417,2.821-3.47,0-5.865-2.463-5.865-6.849s2.462-6.872,6.245-6.872a5.111,5.111,0,0,1,5.1,3.223l-2.261,1.119a2.935,2.935,0,0,0-2.954-2.261c-2.306,0-3.649,1.836-3.649,4.812,0,2.955,1.209,4.7,3.6,4.7a3.5,3.5,0,0,0,3.29-1.992l1.9,1.3" transform="translate(-131.524 -32.422)" fill="#fff"/>
      <path id="Path_722" data-name="Path 722" d="M237.472,47.231a19.215,19.215,0,0,1,1.366,2.261h.089s-.089-1.32-.089-2.977V40.068h2.4V53.252h-2.284l-5.059-7.1a17.837,17.837,0,0,1-1.432-2.35h-.089s.134,1.3.134,3.066v6.379h-2.4V40.068h2.35l5.014,7.163" transform="translate(-177.705 -33.328)" fill="#fff"/>
      <path id="Path_723" data-name="Path 723" d="M302.515,49.794c-1.186,1.9-2.686,2.821-5.416,2.821-3.47,0-5.865-2.463-5.865-6.849s2.462-6.872,6.245-6.872a5.112,5.112,0,0,1,5.1,3.223l-2.261,1.119a2.935,2.935,0,0,0-2.954-2.261c-2.305,0-3.649,1.836-3.649,4.812,0,2.955,1.209,4.7,3.6,4.7a3.5,3.5,0,0,0,3.29-1.992l1.9,1.3" transform="translate(-224.867 -32.422)" fill="#fff"/>
      <path id="Path_724" data-name="Path 724" d="M354.568,49.94h-5.26l-1.164,3.313h-2.485l4.79-13.184h3.066l4.791,13.184h-2.574l-1.164-3.313m-4.589-1.992h3.873L353,45.485a28.037,28.037,0,0,1-1.029-3.559h-.09a34.345,34.345,0,0,1-1.03,3.537Z" transform="translate(-266.859 -33.328)" fill="#fff"/>
    </g>
  </g>
</svg>
