<svg id="np_store_1358255_000000" xmlns="http://www.w3.org/2000/svg" width="65.999" height="57.267" viewBox="0 0 65.999 57.267">
  <path id="np_store_1358255_000000-2" data-name="np_store_1358255_000000" d="M6.948,11.821H59.19V7H6.948ZM65.422,27.468H46.215L42.592,14.015H59.286Zm-43.8,8.281H44.375v-6.2H21.625Zm18.81-21.733,3.622,13.453H21.942l3.622-13.453Zm-33.853,0H23.407L19.784,27.468H.565ZM0,29.548v6.2H19.539v-6.2Zm46.46,0v6.2H66v-6.2ZM34.042,56.3H54.664V44H34.042Zm22.7,1.039a1.042,1.042,0,0,1-1.042,1.042H33a1.042,1.042,0,0,1-1.042-1.042V42.957A1.04,1.04,0,0,1,33,41.918h22.7a1.04,1.04,0,0,1,1.042,1.039Zm5.8-19.516H3.5V64.267h6.605V49.752a7.851,7.851,0,0,1,15.7,0V64.267H62.543ZM19.968,56a1.845,1.845,0,1,1,1.849-1.846A1.85,1.85,0,0,1,19.968,56M17.957,44a5.768,5.768,0,0,0-5.767,5.754V64.267H23.724V49.752A5.768,5.768,0,0,0,17.957,44" transform="translate(0 -7)" fill="#eb4128" fill-rule="evenodd"/>
</svg>
