<svg id="Component_45_1" data-name="Component 45 – 1" xmlns="http://www.w3.org/2000/svg" width="101.101" height="51.521" viewBox="0 0 101.101 51.521">
  <g id="Group_1204" data-name="Group 1204" transform="translate(17.676 22.351)">
    <path id="Path_1051" data-name="Path 1051" d="M792.942,868.646a7.262,7.262,0,0,1,1.616-1.957,6.844,6.844,0,0,1,2.131-1.22,7.2,7.2,0,0,1,2.432-.42,6.921,6.921,0,0,1,2.028.285,4.87,4.87,0,0,1,1.624.832,3.849,3.849,0,0,1,1.078,1.339,4.016,4.016,0,0,1,.388,1.79,5.552,5.552,0,0,1-.475,2.416,3.908,3.908,0,0,1-1.4,1.6,6.383,6.383,0,0,1-2.3.879,16.624,16.624,0,0,1-3.177.269q-.824,0-1.616-.063a13.642,13.642,0,0,1-1.458-.19l-.143.919a3.976,3.976,0,0,0,.626,3.185,3.623,3.623,0,0,0,3,1.157,13.985,13.985,0,0,0,1.608-.087q.753-.087,1.363-.206t1.07-.246q.459-.127.713-.206l-.047,1.9q-.27.1-.769.246a11.794,11.794,0,0,1-1.156.277q-.658.127-1.458.222a14.178,14.178,0,0,1-1.672.1,6.931,6.931,0,0,1-2.5-.428A4.769,4.769,0,0,1,792.6,879.8a4.568,4.568,0,0,1-1.038-1.973,6.665,6.665,0,0,1-.079-2.654l.57-3.882A7.458,7.458,0,0,1,792.942,868.646Zm2.543,4.072a15.058,15.058,0,0,0,1.545.079,14.565,14.565,0,0,0,2.171-.143,4.232,4.232,0,0,0,1.553-.515,2.365,2.365,0,0,0,.927-1.006,3.689,3.689,0,0,0,.309-1.616,2.25,2.25,0,0,0-.824-1.854,3.619,3.619,0,0,0-2.329-.665,4.346,4.346,0,0,0-3.09,1.109,5.341,5.341,0,0,0-1.505,3.232l-.174,1.188Q794.717,872.638,795.485,872.718Z" transform="translate(-791.39 -859.393)" fill="#fff"/>
    <path id="Path_1052" data-name="Path 1052" d="M968.115,867.331a16.565,16.565,0,0,1,3.034-1.648,7.85,7.85,0,0,1,2.987-.634,3.529,3.529,0,0,1,2.892,1.109,4.007,4.007,0,0,1,.594,3.232l-1.759,11.757h-2.186l1.679-11.17a3.012,3.012,0,0,0-.3-2.115,2.072,2.072,0,0,0-1.838-.721,7.13,7.13,0,0,0-2.408.5,12.274,12.274,0,0,0-2.757,1.466l-1.79,12.042h-2.187l2.361-15.781h1.806Z" transform="translate(-949.562 -859.393)" fill="#fff"/>
    <path id="Path_1053" data-name="Path 1053" d="M1153.562,880.893a6.526,6.526,0,0,1-2.709.57,4.551,4.551,0,0,1-1.957-.42,3.854,3.854,0,0,1-1.489-1.228,5.039,5.039,0,0,1-.84-1.973,7.523,7.523,0,0,1-.024-2.654l.586-3.85a7.82,7.82,0,0,1,.871-2.662,6.775,6.775,0,0,1,3.842-3.208,8.293,8.293,0,0,1,2.67-.42,13.238,13.238,0,0,1,3.209.349,8.827,8.827,0,0,1,2.305.887l-2.313,15.48a8,8,0,0,1-2.464,5.118,8.2,8.2,0,0,1-5.506,1.68,12.713,12.713,0,0,1-2.686-.253,10.565,10.565,0,0,1-1.8-.523l.681-1.917a11.893,11.893,0,0,0,1.7.475,10.881,10.881,0,0,0,2.274.222,8.568,8.568,0,0,0,2.313-.277,4.417,4.417,0,0,0,1.656-.84,4.1,4.1,0,0,0,1.077-1.418,7.221,7.221,0,0,0,.578-2.012l.38-2.551A11.425,11.425,0,0,1,1153.562,880.893Zm-.689-1.577a6.886,6.886,0,0,0,1.188-.412,8.482,8.482,0,0,0,1.117-.61,9.074,9.074,0,0,0,.982-.729l1.489-9.919a9.469,9.469,0,0,0-1.545-.46,9.114,9.114,0,0,0-1.925-.19,5.331,5.331,0,0,0-1.933.325,4.224,4.224,0,0,0-1.442.911,4.682,4.682,0,0,0-.982,1.41,6.519,6.519,0,0,0-.523,1.822l-.539,3.565a7.815,7.815,0,0,0-.063,1.83,3.286,3.286,0,0,0,.428,1.394,2.351,2.351,0,0,0,.974.9,3.436,3.436,0,0,0,1.561.317A5.049,5.049,0,0,0,1152.872,879.317Z" transform="translate(-1115.518 -859.393)" fill="#fff"/>
    <path id="Path_1054" data-name="Path 1054" d="M1362.829,882.635a15.6,15.6,0,0,1-2.995,1.656,7.654,7.654,0,0,1-2.915.626,3.441,3.441,0,0,1-2.844-1.109,4.051,4.051,0,0,1-.578-3.232l1.759-11.757h2.186l-1.664,11.17a2.888,2.888,0,0,0,.277,2.115,2.017,2.017,0,0,0,1.782.721,6.97,6.97,0,0,0,2.353-.491,11.9,11.9,0,0,0,2.717-1.458l1.806-12.058h2.187l-2.361,15.781h-1.822Z" transform="translate(-1306.179 -862.846)" fill="#fff"/>
    <path id="Path_1055" data-name="Path 1055" d="M1542.73,819.5h-2.187l2.361-15.781h2.187Zm.958-21.311a1.6,1.6,0,0,1,1.2-.444,1.212,1.212,0,0,1,.9.309,1.167,1.167,0,0,1,.309.863,1.507,1.507,0,0,1-1.632,1.632,1.237,1.237,0,0,1-.887-.3,1.124,1.124,0,0,1-.317-.856A1.644,1.644,0,0,1,1543.688,798.19Z" transform="translate(-1477.58 -797.746)" fill="#fff"/>
    <path id="Path_1056" data-name="Path 1056" d="M1623.894,868.677a6.774,6.774,0,0,1,3.842-3.208,8.294,8.294,0,0,1,2.67-.42,13.238,13.238,0,0,1,3.208.349,8.827,8.827,0,0,1,2.305.887l-2.218,14.862h-1.822l.127-1.87a11.754,11.754,0,0,1-2.432,1.553,6.461,6.461,0,0,1-2.828.634,4.551,4.551,0,0,1-1.957-.42,3.857,3.857,0,0,1-1.489-1.228,5.039,5.039,0,0,1-.84-1.973,7.52,7.52,0,0,1-.024-2.654l.586-3.85A7.823,7.823,0,0,1,1623.894,868.677Zm4.872,10.632a7.383,7.383,0,0,0,1.188-.42,7.971,7.971,0,0,0,1.117-.618,8.592,8.592,0,0,0,.982-.753l1.489-9.871a9.473,9.473,0,0,0-1.545-.46,9.115,9.115,0,0,0-1.925-.19,5.332,5.332,0,0,0-1.933.325,4.222,4.222,0,0,0-1.442.911,4.682,4.682,0,0,0-.982,1.41,6.519,6.519,0,0,0-.523,1.822l-.539,3.565a7.8,7.8,0,0,0-.063,1.83,3.284,3.284,0,0,0,.428,1.394,2.352,2.352,0,0,0,.974.9,3.436,3.436,0,0,0,1.561.317A4.806,4.806,0,0,0,1628.766,879.309Z" transform="translate(-1552.494 -859.393)" fill="#fff"/>
  </g>
  <g id="Group_1205" data-name="Group 1205">
    <path id="Path_1057" data-name="Path 1057" d="M614.254,542.2c-.237-.529-1.75-1.3-3.765-1.645a5.491,5.491,0,0,0-2.309.008,11.037,11.037,0,0,0-1.758.828,48.4,48.4,0,0,0-25.354,41.777.785.785,0,0,0,1.57.031,38.7,38.7,0,0,1,9.634-24.563,46.59,46.59,0,0,1,18.288-12.81,7.952,7.952,0,0,0,1.98-1.007C613.662,543.945,614.48,542.709,614.254,542.2Zm-4.722.671a.8.8,0,1,1,.207-1.107A.8.8,0,0,1,609.532,542.876Z" transform="translate(-581.068 -539.716)" fill="#fff"/>
    <path id="Path_1058" data-name="Path 1058" d="M600.4,560.091A49.323,49.323,0,0,1,624.452,532.2a4.4,4.4,0,0,0-4.057.2l-.017.01a45.687,45.687,0,0,0-15.4,15.884,43.761,43.761,0,0,0-4.642,11.773A.033.033,0,0,0,600.4,560.091Z" transform="translate(-598.715 -531.802)" fill="#fff"/>
  </g>
</svg>
