<svg id="np_school_2443844_000000" xmlns="http://www.w3.org/2000/svg" width="72.515" height="67.194" viewBox="0 0 72.515 67.194">
  <path id="Path_559" data-name="Path 559" d="M24,70.367h3.6v2.5H24Z" transform="translate(-6.596 -22.546)" fill="#f05a28"/>
  <path id="Path_560" data-name="Path 560" d="M48.175,47.062a5.109,5.109,0,1,0,5.1,5.113A5.12,5.12,0,0,0,48.175,47.062Zm3.207,7.393a.711.711,0,0,1-.994.167l-2.626-1.867a.707.707,0,0,1-.3-.552l-.13-3.374a.713.713,0,0,1,1.425-.054l.116,3.022,2.34,1.663a.71.71,0,0,1,.17.994Z" transform="translate(-11.836 -16.141)" fill="#f05a28"/>
  <path id="Path_561" data-name="Path 561" d="M70.062,87.273h3.6v2.5h-3.6Z" transform="translate(-19.256 -27.192)" fill="#f05a28"/>
  <path id="Path_562" data-name="Path 562" d="M24,87.273h3.6v2.5H24Z" transform="translate(-6.596 -27.192)" fill="#f05a28"/>
  <path id="Path_563" data-name="Path 563" d="M28.553,34.6,7.141,34.489,0,46.848l16.5-.017Z" transform="translate(0 -12.685)" fill="#f05a28"/>
  <path id="Path_564" data-name="Path 564" d="M70.062,70.367h3.6v2.5h-3.6Z" transform="translate(-19.256 -22.546)" fill="#f05a28"/>
  <path id="Path_565" data-name="Path 565" d="M8.7,87.273h3.592v2.5H8.7Z" transform="translate(-2.393 -27.192)" fill="#f05a28"/>
  <path id="Path_566" data-name="Path 566" d="M8.7,70.367h3.592v2.5H8.7Z" transform="translate(-2.393 -22.546)" fill="#f05a28"/>
  <path id="Path_567" data-name="Path 567" d="M47.193,69.75a7.7,7.7,0,0,0-7.682,7.688V89.57h15.37V77.438a7.7,7.7,0,0,0-7.688-7.688Z" transform="translate(-10.86 -22.376)" fill="#f05a28"/>
  <path id="Path_568" data-name="Path 568" d="M85.363,87.273h3.6v2.5h-3.6Z" transform="translate(-23.461 -27.192)" fill="#f05a28"/>
  <path id="Path_569" data-name="Path 569" d="M73.553,46.854l15.8-.014-8.524-12-19.574-.1Z" transform="translate(-16.836 -12.755)" fill="#f05a28"/>
  <path id="Path_570" data-name="Path 570" d="M85.363,70.367h3.6v2.5h-3.6Z" transform="translate(-23.461 -22.546)" fill="#f05a28"/>
  <path id="Path_571" data-name="Path 571" d="M57.6,39.946a.769.769,0,0,1-.139-.014.3.3,0,0,1-.054-.017c-.025-.008-.054-.014-.079-.023a.363.363,0,0,1-.057-.031l-.065-.034c-.025-.017-.045-.037-.068-.054s-.025-.02-.037-.031L43.444,26.293a.721.721,0,0,1-.229-.224L38.22,21.151V12.965h9.8a.712.712,0,0,0,.711-.714l0-7.116a.714.714,0,0,0-.711-.714H37.51a.714.714,0,0,0-.714.714v16.05L18.6,39.649a.71.71,0,0,1-.606.343l-13.733.014V71.613H28.4V59.481a9.11,9.11,0,1,1,18.22,0V71.613H70.75V39.935ZM11.789,68.429H6.769a.714.714,0,0,1-.714-.711V63.791a.712.712,0,0,1,.714-.711h5.017a.714.714,0,0,1,.714.711v3.926a.711.711,0,0,1-.711.711Zm0-12.257H6.769a.714.714,0,0,1-.714-.711V51.532a.712.712,0,0,1,.714-.711h5.017a.714.714,0,0,1,.714.711v3.929a.711.711,0,0,1-.711.711ZM23.595,67.718a.712.712,0,0,1-.714.711H17.859a.714.714,0,0,1-.714-.711V63.792a.712.712,0,0,1,.714-.711h5.022a.714.714,0,0,1,.714.711Zm0-12.26a.712.712,0,0,1-.714.711H17.859a.714.714,0,0,1-.714-.711V51.529a.712.712,0,0,1,.714-.711h5.022a.714.714,0,0,1,.714.711Zm13.917-8.473a6.534,6.534,0,1,1,6.529-6.529A6.54,6.54,0,0,1,37.512,46.985ZM57,67.718a.711.711,0,0,1-.711.711H51.264a.711.711,0,0,1-.711-.711V63.792a.711.711,0,0,1,.711-.711h5.028a.711.711,0,0,1,.711.711Zm0-12.26a.711.711,0,0,1-.711.711H51.264a.711.711,0,0,1-.711-.711V51.529a.711.711,0,0,1,.711-.711h5.028a.711.711,0,0,1,.711.711Zm4.646-3.926a.711.711,0,0,1,.711-.711h5.028a.711.711,0,0,1,.711.711v3.929a.711.711,0,0,1-.711.711H62.36a.711.711,0,0,1-.711-.711Zm0,12.257a.711.711,0,0,1,.711-.711h5.028a.711.711,0,0,1,.711.711v3.926a.711.711,0,0,1-.711.711H62.36a.711.711,0,0,1-.711-.711Z" transform="translate(-1.172 -4.422)" fill="#f05a28"/>
</svg>
