<svg xmlns="http://www.w3.org/2000/svg" width="169.8" height="50.3" viewBox="0 0 169.8 50.3">
  <g id="Grupo_1201" data-name="Grupo 1201" transform="translate(-818.999 -1074)">
    <g id="noun_Family_842345" transform="translate(816.699 1048)">
      <path id="Caminho_632" data-name="Caminho 632" d="M19.4,26A9.6,9.6,0,1,0,29,35.6,9.6,9.6,0,0,0,19.4,26Z" fill="#f05a28"/>
      <path id="Caminho_633" data-name="Caminho 633" d="M28.2,48.6H10.6a8.344,8.344,0,0,0-8.3,8.3V76.3H36.6V56.9A8.24,8.24,0,0,0,28.2,48.6Z" fill="#f05a28"/>
      <path id="Caminho_634" data-name="Caminho 634" d="M49,48.6a5.3,5.3,0,1,0,5.3,5.3A5.335,5.335,0,0,0,49,48.6Z" fill="#f05a28"/>
      <path id="Caminho_635" data-name="Caminho 635" d="M53.8,61H44.1a4.588,4.588,0,0,0-4.6,4.6V76.3H58.4V65.6A4.526,4.526,0,0,0,53.8,61Z" fill="#f05a28"/>
      <path id="Caminho_636" data-name="Caminho 636" d="M75.1,29.4A8.9,8.9,0,1,0,84,38.3,8.92,8.92,0,0,0,75.1,29.4Z" fill="#f05a28"/>
      <path id="Caminho_637" data-name="Caminho 637" d="M81.8,50.3H68.3c-3.5,0-6.4,3.4-6.4,7.7V76.2H88.3V58.1C88.3,53.8,85.4,50.3,81.8,50.3Z" fill="#f05a28"/>
      <path id="Caminho_638" data-name="Caminho 638" d="M81.7,30.1s7.4-6.1,10.4-.9a18.38,18.38,0,0,1,1.7,7.6,18.627,18.627,0,0,0,1.5,7.6s.9,2,2.8,1.7V47s-4.3,1-6.7-1.1a12.335,12.335,0,0,1-3.3-4.7,38.8,38.8,0,0,1-1.8-6.8c-.7-4-2.3-3.6-2.3-3.6s-1,0-1.2.4Z" fill="#f05a28"/>
    </g>
    <g id="noun_Family_842345-2" data-name="noun_Family_842345" transform="translate(912.699 1048)">
      <path id="Caminho_632-2" data-name="Caminho 632" d="M19.4,26A9.6,9.6,0,1,0,29,35.6,9.6,9.6,0,0,0,19.4,26Z" fill="#f05a28"/>
      <path id="Caminho_633-2" data-name="Caminho 633" d="M28.2,48.6H10.6a8.344,8.344,0,0,0-8.3,8.3V76.3H36.6V56.9A8.24,8.24,0,0,0,28.2,48.6Z" fill="#f05a28"/>
      <path id="Caminho_636-2" data-name="Caminho 636" d="M75.1,29.4A8.9,8.9,0,1,0,84,38.3,8.92,8.92,0,0,0,75.1,29.4Z" transform="translate(-22)" fill="#f05a28"/>
      <path id="Caminho_637-2" data-name="Caminho 637" d="M81.8,50.3H68.3c-3.5,0-6.4,3.4-6.4,7.7V76.2H88.3V58.1C88.3,53.8,85.4,50.3,81.8,50.3Z" transform="translate(-22)" fill="#f05a28"/>
      <path id="Caminho_638-2" data-name="Caminho 638" d="M81.7,30.1s7.4-6.1,10.4-.9a18.38,18.38,0,0,1,1.7,7.6,18.627,18.627,0,0,0,1.5,7.6s.9,2,2.8,1.7V47s-4.3,1-6.7-1.1a12.335,12.335,0,0,1-3.3-4.7,38.8,38.8,0,0,1-1.8-6.8c-.7-4-2.3-3.6-2.3-3.6s-1,0-1.2.4Z" transform="translate(-22)" fill="#f05a28"/>
    </g>
  </g>
</svg>
