<svg id="Layer_1" data-name="Layer 1" xmlns="http://www.w3.org/2000/svg" viewBox="0 0 16 16"><defs><style>.cls-1{fill:#ffcd00;}.cls-2{fill:#eb1928;}.cls-3{fill:#f05a28;}.cls-4{fill:#faaf41;}.cls-5{fill:#eb4128;}</style></defs><path id="Caminho_490" data-name="Caminho 490" class="cls-1" d="M7.6,4.26h.75V5H7.6Z"/><path id="Caminho_491" data-name="Caminho 491" class="cls-2" d="M7.6,11h.75v.75H7.6Z"/><path id="Caminho_492" data-name="Caminho 492" class="cls-3" d="M11,7.63h.75v.74H11Z"/><path id="Caminho_493" data-name="Caminho 493" class="cls-3" d="M4.23,7.63H5v.74H4.23Z"/><path id="Caminho_494" data-name="Caminho 494" class="cls-1" d="M7.41,2.5H8.53V3.62H7.41Z"/><path id="Caminho_495" data-name="Caminho 495" class="cls-2" d="M7.41,12.38H8.53V13.5H7.41Z"/><path id="Caminho_496" data-name="Caminho 496" class="cls-3" d="M12.35,7.44h1.12V8.56H12.35Z"/><path id="Caminho_497" data-name="Caminho 497" class="cls-3" d="M2.47,7.44H3.59V8.56H2.47Z"/><path id="Caminho_498" data-name="Caminho 498" class="cls-1" d="M7.21.32H8.74V1.86H7.21Z"/><path id="Caminho_499" data-name="Caminho 499" class="cls-2" d="M7.21,14.14H8.74v1.54H7.21Z"/><path id="Caminho_500" data-name="Caminho 500" class="cls-3" d="M14.11,7.23h1.54V8.77H14.11Z"/><path id="Caminho_501" data-name="Caminho 501" class="cls-3" d="M.3,7.23H1.83V8.77H.3Z"/><path id="Caminho_502" data-name="Caminho 502" class="cls-4" d="M10.35,5.09l.53.53-.53.53-.53-.53Z"/><path id="Caminho_503" data-name="Caminho 503" class="cls-5" d="M5.59,9.85l.53.53-.53.53-.53-.53Z"/><path id="Caminho_504" data-name="Caminho 504" class="cls-5" d="M10.35,9.85l.53.53-.53.53-.53-.53Z"/><path id="Caminho_505" data-name="Caminho 505" class="cls-4" d="M5.59,5.09l.53.53-.53.53-.53-.53Z"/><path id="Caminho_506" data-name="Caminho 506" class="cls-4" d="M11.47,3.72l.78.79-.78.79-.79-.79Z"/><path id="Caminho_507" data-name="Caminho 507" class="cls-5" d="M4.48,10.71l.79.78-.79.79-.79-.79Z"/><path id="Caminho_508" data-name="Caminho 508" class="cls-5" d="M11.47,10.71l.78.78-.78.79-.79-.79Z"/><path id="Caminho_509" data-name="Caminho 509" class="cls-4" d="M4.48,3.72l.79.79-.79.79-.79-.79Z"/><path id="Caminho_510" data-name="Caminho 510" class="cls-4" d="M12.86,2l1.08,1.09L12.86,4.2,11.77,3.12Z"/><path id="Caminho_511" data-name="Caminho 511" class="cls-5" d="M3.09,11.8l1.08,1.09L3.09,14,2,12.89Z"/><path id="Caminho_512" data-name="Caminho 512" class="cls-5" d="M12.86,11.8l1.08,1.09L12.86,14l-1.09-1.08Z"/><path id="Caminho_513" data-name="Caminho 513" class="cls-4" d="M3.09,2,4.17,3.12,3.09,4.2,2,3.12Z"/></svg>