<svg xmlns="http://www.w3.org/2000/svg" width="397.098" height="722.019" viewBox="0 0 397.098 722.019">
  <g id="Group_985" data-name="Group 985" transform="translate(-28.398 -2041.81)" opacity="0.444" style="mix-blend-mode: color-dodge;isolation: isolate">
    <rect id="Rectangle_1778" data-name="Rectangle 1778" width="35.177" height="35.174" transform="translate(46.903 2226.944)" fill="#fff"/>
    <rect id="Rectangle_1779" data-name="Rectangle 1779" width="35.177" height="35.176" transform="translate(46.903 2543.519)" fill="#fff"/>
    <rect id="Rectangle_1780" data-name="Rectangle 1780" width="35.173" height="35.174" transform="translate(205.188 2385.238)" fill="#fff"/>
    <rect id="Rectangle_1781" data-name="Rectangle 1781" width="35.194" height="35.194" transform="translate(151.541 2290.873) rotate(-44.997)" fill="#fff"/>
    <rect id="Rectangle_1782" data-name="Rectangle 1782" width="35.194" height="35.194" transform="translate(151.541 2514.715) rotate(-44.998)" fill="#fff"/>
    <rect id="Rectangle_1783" data-name="Rectangle 1783" width="52.455" height="52.458" transform="translate(38.266 2140.533)" fill="#fff"/>
    <rect id="Rectangle_1784" data-name="Rectangle 1784" width="52.455" height="52.457" transform="translate(38.266 2612.649)" fill="#fff"/>
    <rect id="Rectangle_1785" data-name="Rectangle 1785" width="52.458" height="52.457" transform="translate(274.315 2376.599)" fill="#fff"/>
    <rect id="Rectangle_1786" data-name="Rectangle 1786" width="52.486" height="52.486" transform="translate(194.309 2235.875) rotate(-45)" fill="#fff"/>
    <rect id="Rectangle_1787" data-name="Rectangle 1787" width="52.486" height="52.486" transform="translate(194.309 2569.691) rotate(-45)" fill="#fff"/>
    <rect id="Rectangle_1788" data-name="Rectangle 1788" width="72.198" height="72.203" transform="translate(28.398 2041.81)" fill="#fff"/>
    <rect id="Rectangle_1789" data-name="Rectangle 1789" width="72.198" height="72.202" transform="translate(28.398 2691.626)" fill="#fff"/>
    <rect id="Rectangle_1790" data-name="Rectangle 1790" width="72.202" height="72.202" transform="translate(353.295 2366.73)" fill="#fff"/>
    <rect id="Rectangle_1791" data-name="Rectangle 1791" width="72.242" height="72.242" transform="matrix(0.707, -0.707, 0.707, 0.707, 243.174, 2173.038)" fill="#fff"/>
    <rect id="Rectangle_1792" data-name="Rectangle 1792" width="72.242" height="72.242" transform="translate(243.174 2632.503) rotate(-45)" fill="#fff"/>
  </g>
</svg>
