<svg id="np_school_2443844_000000" xmlns="http://www.w3.org/2000/svg" width="77.659" height="71.961" viewBox="0 0 77.659 71.961">
  <path id="Path_559" data-name="Path 559" d="M24,70.367h3.853v2.682H24Z" transform="translate(-5.362 -19.153)" fill="#f05a28"/>
  <path id="Path_560" data-name="Path 560" d="M48.538,47.062A5.471,5.471,0,1,0,54,52.538,5.483,5.483,0,0,0,48.538,47.062Zm3.434,7.917a.761.761,0,0,1-1.065.179l-2.812-2a.758.758,0,0,1-.322-.592l-.14-3.613A.763.763,0,1,1,49.16,48.9l.124,3.237,2.506,1.781a.76.76,0,0,1,.182,1.065Z" transform="translate(-9.62 -13.947)" fill="#f05a28"/>
  <path id="Path_561" data-name="Path 561" d="M70.062,87.273h3.859v2.679H70.062Z" transform="translate(-15.652 -22.93)" fill="#f05a28"/>
  <path id="Path_562" data-name="Path 562" d="M24,87.273h3.853v2.679H24Z" transform="translate(-5.362 -22.93)" fill="#f05a28"/>
  <path id="Path_563" data-name="Path 563" d="M30.579,34.6,7.648,34.489,0,47.724l17.668-.018Z" transform="translate(0 -11.138)" fill="#f05a28"/>
  <path id="Path_564" data-name="Path 564" d="M70.062,70.367h3.859v2.682H70.062Z" transform="translate(-15.652 -19.153)" fill="#f05a28"/>
  <path id="Path_565" data-name="Path 565" d="M8.7,87.273H12.55v2.679H8.7Z" transform="translate(-1.945 -22.93)" fill="#f05a28"/>
  <path id="Path_566" data-name="Path 566" d="M8.7,70.367H12.55v2.682H8.7Z" transform="translate(-1.945 -19.153)" fill="#f05a28"/>
  <path id="Path_567" data-name="Path 567" d="M47.738,69.75a8.242,8.242,0,0,0-8.227,8.234V90.976h16.46V77.984a8.243,8.243,0,0,0-8.234-8.234Z" transform="translate(-8.827 -19.015)" fill="#f05a28"/>
  <path id="Path_568" data-name="Path 568" d="M85.363,87.273h3.859v2.679H85.363Z" transform="translate(-19.071 -22.93)" fill="#f05a28"/>
  <path id="Path_569" data-name="Path 569" d="M74.426,47.714,91.344,47.7,82.216,34.845l-20.962-.1Z" transform="translate(-13.685 -11.194)" fill="#f05a28"/>
  <path id="Path_570" data-name="Path 570" d="M85.363,70.367h3.859v2.682H85.363Z" transform="translate(-19.071 -19.153)" fill="#f05a28"/>
  <path id="Path_571" data-name="Path 571" d="M61.382,42.466a.824.824,0,0,1-.149-.015.321.321,0,0,1-.058-.018c-.027-.009-.058-.015-.085-.024a.388.388,0,0,1-.061-.033l-.07-.036c-.027-.018-.049-.039-.073-.058s-.027-.021-.039-.033l-14.625-14.4a.772.772,0,0,1-.246-.24l-5.348-5.266V13.571h10.49a.763.763,0,0,0,.761-.764l0-7.62a.765.765,0,0,0-.761-.764H39.868a.765.765,0,0,0-.764.764V22.375L19.621,42.148a.761.761,0,0,1-.649.367L4.265,42.53V76.379H30.111V63.387a9.756,9.756,0,1,1,19.512,0V76.379H75.466V42.454Zm-49.06,30.5H6.947a.765.765,0,0,1-.764-.761V68a.763.763,0,0,1,.764-.761h5.373a.765.765,0,0,1,.764.761v4.2a.762.762,0,0,1-.761.761Zm0-13.126H6.947a.765.765,0,0,1-.764-.761V54.874a.763.763,0,0,1,.764-.761h5.373a.765.765,0,0,1,.764.761v4.208a.762.762,0,0,1-.761.761ZM24.966,72.208a.763.763,0,0,1-.764.761H18.823a.765.765,0,0,1-.764-.761V68a.763.763,0,0,1,.764-.761H24.2a.765.765,0,0,1,.764.761Zm0-13.129a.763.763,0,0,1-.764.761H18.823a.765.765,0,0,1-.764-.761V54.871a.763.763,0,0,1,.764-.761H24.2a.765.765,0,0,1,.764.761ZM39.87,50a7,7,0,1,1,6.992-6.992A7,7,0,0,1,39.87,50Zm20.874,22.2a.762.762,0,0,1-.761.761H54.6a.762.762,0,0,1-.761-.761V68a.762.762,0,0,1,.761-.761h5.385a.762.762,0,0,1,.761.761Zm0-13.129a.762.762,0,0,1-.761.761H54.6a.762.762,0,0,1-.761-.761V54.871a.762.762,0,0,1,.761-.761h5.385a.762.762,0,0,1,.761.761Zm4.975-4.2a.762.762,0,0,1,.761-.761h5.385a.762.762,0,0,1,.761.761v4.208a.762.762,0,0,1-.761.761H66.481a.762.762,0,0,1-.761-.761Zm0,13.126a.762.762,0,0,1,.761-.761h5.385a.762.762,0,0,1,.761.761v4.2a.762.762,0,0,1-.761.761H66.481a.762.762,0,0,1-.761-.761Z" transform="translate(-0.953 -4.422)" fill="#f05a28"/>
</svg>
