<svg id="np_building_888660_000000" xmlns="http://www.w3.org/2000/svg" width="52.686" height="64.848" viewBox="0 0 52.686 64.848">
  <path id="Path_544" data-name="Path 544" d="M73.579,24.773H24.943l-2.025-8.1H75.6Z" transform="translate(-22.918 -16.668)" fill="#faaf41"/>
  <path id="Path_545" data-name="Path 545" d="M27.082,29.168v52.69H45.32V69.7h8.1V81.858H71.663l0-52.69ZM41.27,65.645h-8.1v-8.1h8.1Zm0-12.159h-8.1v-8.1h8.1Zm0-12.159h-8.1v-8.1h8.1ZM53.429,65.645h-8.1v-8.1h8.1Zm0-12.159h-8.1v-8.1h8.1Zm0-12.159h-8.1v-8.1h8.1ZM65.588,65.645h-8.1v-8.1h8.1Zm0-12.159h-8.1v-8.1h8.1Zm0-12.159h-8.1v-8.1h8.1Z" transform="translate(-23.032 -17.009)" fill="#faaf41"/>
</svg>
