<svg id="Component_43_1" data-name="Component 43 – 1" xmlns="http://www.w3.org/2000/svg" width="340.02" height="81.473" viewBox="0 0 340.02 81.473">
  <g id="Group_719" data-name="Group 719" transform="translate(96.298 27.636)">
    <path id="Path_276" data-name="Path 276" d="M139.946-195.238h-3.495v7.4a.974.974,0,0,1-.206.74,1.308,1.308,0,0,1-.8.173H133.68a1.311,1.311,0,0,1-.8-.173.968.968,0,0,1-.206-.74v-20.593a.967.967,0,0,1,.206-.74,1.311,1.311,0,0,1,.8-.173h6.266a8.764,8.764,0,0,1,5.637,1.543q1.887,1.543,1.888,5.29v.63q0,3.432-1.9,5.038A8.527,8.527,0,0,1,139.946-195.238Zm-3.495-10.833v7.558h3.495a4.669,4.669,0,0,0,2.377-.472,2.2,2.2,0,0,0,1.009-1.26,5.949,5.949,0,0,0,.236-1.7v-.44a6.95,6.95,0,0,0-.236-1.874,2.262,2.262,0,0,0-1.009-1.323,4.545,4.545,0,0,0-2.377-.488Z" transform="translate(-132.671 209.849)" fill="#414141"/>
    <path id="Path_277" data-name="Path 277" d="M166.8-195.679h-3.432v7.841a1.026,1.026,0,0,1-.19.724,1.216,1.216,0,0,1-.818.189H160.6a1.212,1.212,0,0,1-.818-.189,1.026,1.026,0,0,1-.191-.724v-20.593a1.026,1.026,0,0,1,.191-.724,1.212,1.212,0,0,1,.818-.189h6.738q3.716,0,5.464,1.574t1.747,4.976v.6q0,4.787-3.81,6.047l4.691,8.313a.973.973,0,0,1,.128.41q0,.5-.821.5h-2.362a1.341,1.341,0,0,1-.755-.173,2.217,2.217,0,0,1-.565-.74Zm-3.432-10.391v7.117h3.936a3.571,3.571,0,0,0,2.581-.757,3.469,3.469,0,0,0,.757-2.518v-.441a3.757,3.757,0,0,0-.74-2.629,3.525,3.525,0,0,0-2.6-.772Z" transform="translate(-138.305 209.849)" fill="#414141"/>
    <path id="Path_278" data-name="Path 278" d="M195.52-209.982q5.636,0,7.525,4.282a7.078,7.078,0,0,1,.567,2.031,22.263,22.263,0,0,1,.158,2.945v4.6a19.768,19.768,0,0,1-.173,2.819,9.908,9.908,0,0,1-.552,2.156,6.983,6.983,0,0,1-2.834,3.417,8.8,8.8,0,0,1-4.691,1.18q-5.636,0-7.526-4.282a7.1,7.1,0,0,1-.567-2.031,22.392,22.392,0,0,1-.158-2.945v-4.6a19.764,19.764,0,0,1,.173-2.819,10.045,10.045,0,0,1,.552-2.156,6.983,6.983,0,0,1,2.834-3.417A8.8,8.8,0,0,1,195.52-209.982Zm0,3.369a3.886,3.886,0,0,0-3.322,1.322,7.434,7.434,0,0,0-.992,4.377v5.291a7.434,7.434,0,0,0,.992,4.377,3.886,3.886,0,0,0,3.322,1.323,3.889,3.889,0,0,0,3.323-1.323,7.44,7.44,0,0,0,.992-4.377v-5.291a7.44,7.44,0,0,0-.992-4.377A3.889,3.889,0,0,0,195.52-206.613Z" transform="translate(-144.098 209.982)" fill="#414141"/>
    <path id="Path_279" data-name="Path 279" d="M239.11-187.208l-5.447-9.572h-5.354v9.415a.388.388,0,0,1-.44.44h-.693a.389.389,0,0,1-.441-.44V-208.9a.389.389,0,0,1,.441-.44h6.391q6.581,0,6.581,6.014v.5q0,5.132-4.849,5.856l5.45,9.384a.7.7,0,0,1,.156.378c0,.189-.105.283-.314.283h-.913A.592.592,0,0,1,239.11-187.208Zm-5.7-20.751h-5.1v9.793h5.1a5.749,5.749,0,0,0,3.919-1.118,4.533,4.533,0,0,0,1.245-3.542v-.5a4.485,4.485,0,0,0-1.245-3.527A5.809,5.809,0,0,0,233.412-207.96Z" transform="translate(-152.358 209.849)" fill="#414141"/>
    <path id="Path_280" data-name="Path 280" d="M253.7-206.435a1.23,1.23,0,0,1-.833-.284.908.908,0,0,1-.331-.723v-.378a.91.91,0,0,1,.331-.724,1.23,1.23,0,0,1,.833-.284,1.235,1.235,0,0,1,.836.284.91.91,0,0,1,.331.724v.378a.908.908,0,0,1-.331.723A1.235,1.235,0,0,1,253.7-206.435Zm.725,3.873v15.3a.389.389,0,0,1-.441.44h-.66a.39.39,0,0,1-.442-.44v-15.3a.39.39,0,0,1,.442-.44h.66A.39.39,0,0,1,254.428-202.562Z" transform="translate(-157.758 209.74)" fill="#414141"/>
    <path id="Path_281" data-name="Path 281" d="M270.362-184.95a6.145,6.145,0,0,1-4.756-1.779,7.44,7.44,0,0,1-1.637-5.212v-3.086a7.333,7.333,0,0,1,1.684-5.18,6.279,6.279,0,0,1,4.834-1.81,6.141,6.141,0,0,1,4.755,1.778,7.441,7.441,0,0,1,1.637,5.212v3.086a7.331,7.331,0,0,1-1.684,5.18A6.276,6.276,0,0,1,270.362-184.95Zm.063-1.323q4.879,0,4.879-5.825v-2.771q0-5.825-4.879-5.825t-4.882,5.825v2.771Q265.543-186.272,270.425-186.273Z" transform="translate(-160.151 208.315)" fill="#414141"/>
    <path id="Path_282" data-name="Path 282" d="M311.371-187.87v.5a.388.388,0,0,1-.44.44H299.343a.362.362,0,0,1-.41-.409V-208.9a.389.389,0,0,1,.442-.44h11.336a.388.388,0,0,1,.44.44v.5a.389.389,0,0,1-.44.44h-10.2v8.817h9.511a.39.39,0,0,1,.441.44v.5a.39.39,0,0,1-.441.44h-9.511v9.447h10.424A.389.389,0,0,1,311.371-187.87Z" transform="translate(-167.468 209.849)" fill="#414141"/>
    <path id="Path_283" data-name="Path 283" d="M330.619-202.017a5.276,5.276,0,0,1,4,1.449A5.873,5.873,0,0,1,336-196.349v10.517a.39.39,0,0,1-.442.44h-.66a.389.389,0,0,1-.441-.44V-196.1q0-4.534-4.029-4.535a4.753,4.753,0,0,0-3.655,1.385,5.566,5.566,0,0,0-1.29,3.937v9.478a.389.389,0,0,1-.441.44h-.66a.39.39,0,0,1-.442-.44v-15.3a.39.39,0,0,1,.442-.44h.629a.389.389,0,0,1,.44.44v1.858a4.129,4.129,0,0,1,1.952-2.015A6.834,6.834,0,0,1,330.619-202.017Z" transform="translate(-172.702 208.315)" fill="#414141"/>
    <path id="Path_284" data-name="Path 284" d="M360.24-193.106H349.659v.976q0,5.857,4.88,5.857a5.2,5.2,0,0,0,2.676-.6,4.092,4.092,0,0,0,1.606-1.953.567.567,0,0,1,.5-.377h.567c.294,0,.44.125.44.377a2.508,2.508,0,0,1-.362,1.087,4.845,4.845,0,0,1-.833,1.149,6.222,6.222,0,0,1-4.691,1.638,6.05,6.05,0,0,1-4.709-1.779,7.486,7.486,0,0,1-1.622-5.212v-2.771a7.918,7.918,0,0,1,1.669-5.416,6.083,6.083,0,0,1,4.817-1.889,5.7,5.7,0,0,1,4.535,1.763,7.633,7.633,0,0,1,1.542,5.163v1.543A.389.389,0,0,1,360.24-193.106Zm-5.669-7.621q-4.913,0-4.912,6.141v.188H359.2v-.629Q359.2-200.726,354.571-200.727Z" transform="translate(-177.762 208.315)" fill="#414141"/>
    <path id="Path_285" data-name="Path 285" d="M374.554-201.02v2.646a5.224,5.224,0,0,1,5.071-3.086h.5a.389.389,0,0,1,.44.44v.63a.389.389,0,0,1-.44.44h-.6a4.376,4.376,0,0,0-3.67,1.638,7.673,7.673,0,0,0-1.275,4.786v7.81a.39.39,0,0,1-.441.44h-.66a.39.39,0,0,1-.442-.44v-15.3a.39.39,0,0,1,.442-.44h.629A.389.389,0,0,1,374.554-201.02Z" transform="translate(-182.979 208.198)" fill="#414141"/>
    <path id="Path_286" data-name="Path 286" d="M391.338-182.966q.693,2.078,4.157,2.078a5.4,5.4,0,0,0,3.81-1.133,4.8,4.8,0,0,0,1.2-3.622v-2.235q-1.1,2.615-5.038,2.613-6.332,0-6.33-7.21v-2.677a7.138,7.138,0,0,1,1.669-5.1,6.315,6.315,0,0,1,4.817-1.763,6.215,6.215,0,0,1,4.787,1.763,7.284,7.284,0,0,1,1.637,5.132v9.477q0,6.077-6.579,6.078a10.073,10.073,0,0,1-2.6-.315,4.635,4.635,0,0,1-1.842-.882,4.062,4.062,0,0,1-.866-1.054,2.229,2.229,0,0,1-.331-1.087.389.389,0,0,1,.441-.44h.566A.493.493,0,0,1,391.338-182.966ZM390.708-195v2.645q0,5.7,4.881,5.7,4.911,0,4.913-5.7V-195q0-5.7-4.913-5.7Q390.707-200.695,390.708-195Z" transform="translate(-186.346 208.315)" fill="#414141"/>
    <path id="Path_287" data-name="Path 287" d="M415.785-206.435a1.234,1.234,0,0,1-.834-.284.908.908,0,0,1-.331-.723v-.378a.909.909,0,0,1,.331-.724,1.234,1.234,0,0,1,.834-.284,1.234,1.234,0,0,1,.835.284.91.91,0,0,1,.331.724v.378a.908.908,0,0,1-.331.723A1.234,1.234,0,0,1,415.785-206.435Zm.725,3.873v15.3a.39.39,0,0,1-.442.44h-.66a.389.389,0,0,1-.441-.44v-15.3a.39.39,0,0,1,.441-.44h.66A.39.39,0,0,1,416.51-202.562Z" transform="translate(-191.68 209.74)" fill="#414141"/>
    <path id="Path_288" data-name="Path 288" d="M432.077-195.059q.912,0,2.016.111t2.078.267V-197.2a3.206,3.206,0,0,0-.993-2.6,4.756,4.756,0,0,0-3.1-.835,7.5,7.5,0,0,0-1.922.206,2.811,2.811,0,0,0-1.275.724,5.8,5.8,0,0,0-.992,1.432.567.567,0,0,1-.5.378h-.565c-.295,0-.441-.126-.441-.378a2.419,2.419,0,0,1,.346-1.086,4.58,4.58,0,0,1,.788-1.087,5.241,5.241,0,0,1,1.921-1.2,7.782,7.782,0,0,1,2.582-.378q5.7,0,5.7,4.849v6.424a5.734,5.734,0,0,1-1.416,4.33q-1.419,1.338-4.566,1.338h-.253a6.917,6.917,0,0,1-4.456-1.15,4.612,4.612,0,0,1-1.369-3.731,4.65,4.65,0,0,1,1.542-3.873A7.832,7.832,0,0,1,432.077-195.059Zm-.126,1.323a5.993,5.993,0,0,0-3.637.866,3.385,3.385,0,0,0-1.119,2.85,3.435,3.435,0,0,0,1.009,2.771,5,5,0,0,0,3.243.85h.251a4.973,4.973,0,0,0,3.464-.961,4.419,4.419,0,0,0,1.008-3.29v-2.708q-1.166-.189-2.269-.284T431.951-193.736Z" transform="translate(-193.99 208.315)" fill="#414141"/>
  </g>
  <path id="Path_289" data-name="Path 289" d="M59.894-218.513h3.969v3.969H59.894Z" transform="translate(-21.142 239.404)" fill="#ffcd00"/>
  <path id="Path_290" data-name="Path 290" d="M59.893-173.335h3.969v3.969H59.893Z" transform="translate(-21.142 229.949)" fill="#eb1928"/>
  <path id="Path_291" data-name="Path 291" d="M82.482-195.923h3.969v3.969H82.482Z" transform="translate(-25.868 234.677)" fill="#f05a28"/>
  <path id="Path_292" data-name="Path 292" d="M37.3-195.923h3.969v3.969H37.3Z" transform="translate(-16.413 234.677)" fill="#f05a28"/>
  <path id="Path_293" data-name="Path 293" d="M58.661-230.314H64.58v5.919H58.661Z" transform="translate(-20.884 241.874)" fill="#ffcd00"/>
  <path id="Path_294" data-name="Path 294" d="M58.661-164H64.58v5.919H58.661Z" transform="translate(-20.884 227.995)" fill="#eb1928"/>
  <path id="Path_295" data-name="Path 295" d="M91.816-197.156h5.919v5.919H91.816Z" transform="translate(-27.821 234.935)" fill="#f05a28"/>
  <path id="Path_296" data-name="Path 296" d="M25.5-197.156h5.919v5.919H25.5Z" transform="translate(-13.945 234.935)" fill="#f05a28"/>
  <path id="Path_297" data-name="Path 297" d="M57.252-244.933H65.4v8.147H57.252Z" transform="translate(-20.589 244.933)" fill="#ffcd00"/>
  <path id="Path_298" data-name="Path 298" d="M57.252-152.2H65.4v8.147H57.252Z" transform="translate(-20.589 225.525)" fill="#eb1928"/>
  <path id="Path_299" data-name="Path 299" d="M103.618-198.564h8.147v8.147h-8.147Z" transform="translate(-30.292 235.23)" fill="#f05a28"/>
  <path id="Path_300" data-name="Path 300" d="M10.884-198.564h8.147v8.147H10.884Z" transform="translate(-10.884 235.23)" fill="#f05a28"/>
  <path id="Path_301" data-name="Path 301" d="M77.633-212.936l2.807,2.807-2.807,2.806-2.806-2.806Z" transform="translate(-24.267 238.238)" fill="#faaf41"/>
  <path id="Path_302" data-name="Path 302" d="M45.687-180.99l2.807,2.806-2.807,2.807-2.806-2.807Z" transform="translate(-17.581 231.552)" fill="#eb4128"/>
  <path id="Path_303" data-name="Path 303" d="M77.632-180.99l2.806,2.806-2.806,2.807-2.807-2.807Z" transform="translate(-24.267 231.552)" fill="#eb4128"/>
  <path id="Path_304" data-name="Path 304" d="M45.686-212.936l2.807,2.807-2.807,2.806-2.806-2.806Z" transform="translate(-17.581 238.238)" fill="#faaf41"/>
  <path id="Path_305" data-name="Path 305" d="M84.741-222.152l4.185,4.185-4.185,4.186-4.186-4.186Z" transform="translate(-25.466 240.165)" fill="#faaf41"/>
  <path id="Path_306" data-name="Path 306" d="M37.85-175.261l4.185,4.185L37.85-166.89l-4.186-4.186Z" transform="translate(-15.652 230.353)" fill="#eb4128"/>
  <path id="Path_307" data-name="Path 307" d="M84.739-175.261l4.186,4.185-4.186,4.186-4.185-4.186Z" transform="translate(-25.466 230.353)" fill="#eb4128"/>
  <path id="Path_308" data-name="Path 308" d="M37.848-222.152l4.186,4.185-4.186,4.186-4.185-4.186Z" transform="translate(-15.652 240.165)" fill="#faaf41"/>
  <path id="Path_309" data-name="Path 309" d="M93.665-233.486l5.76,5.761-5.76,5.761L87.9-227.725Z" transform="translate(-27.003 242.538)" fill="#faaf41"/>
  <path id="Path_310" data-name="Path 310" d="M28.092-167.913l5.761,5.761-5.761,5.761-5.761-5.761Z" transform="translate(-13.28 228.814)" fill="#eb4128"/>
  <path id="Path_311" data-name="Path 311" d="M93.663-167.913l5.761,5.761-5.761,5.761L87.9-162.152Z" transform="translate(-27.003 228.814)" fill="#eb4128"/>
  <path id="Path_312" data-name="Path 312" d="M28.09-233.485l5.761,5.761-5.761,5.76-5.761-5.76Z" transform="translate(-13.279 242.538)" fill="#faaf41"/>
</svg>
