<svg id="Component_45_1" data-name="Component 45 – 1" xmlns="http://www.w3.org/2000/svg" width="233.991" height="56.067" viewBox="0 0 233.991 56.067">
  <g id="Group_835" data-name="Group 835">
    <g id="Group_835-2" data-name="Group 835" transform="translate(66.269 19.018)">
      <path id="Path_477" data-name="Path 477" d="M154.453,74.8h-2.405v5.092a.672.672,0,0,1-.141.51.9.9,0,0,1-.552.119h-1.213a.9.9,0,0,1-.553-.119.668.668,0,0,1-.141-.51V65.719a.665.665,0,0,1,.141-.509.9.9,0,0,1,.553-.119h4.312a6.035,6.035,0,0,1,3.879,1.062,4.463,4.463,0,0,1,1.3,3.64v.434a4.286,4.286,0,0,1-1.311,3.467A5.868,5.868,0,0,1,154.453,74.8Zm-2.405-7.455v5.2h2.405a3.219,3.219,0,0,0,1.636-.325,1.512,1.512,0,0,0,.694-.867,4.092,4.092,0,0,0,.162-1.17v-.3a4.776,4.776,0,0,0-.162-1.289,1.553,1.553,0,0,0-.694-.91,3.122,3.122,0,0,0-1.636-.336Z" transform="translate(-149.447 -64.744)" fill="#fff"/>
      <path id="Path_478" data-name="Path 478" d="M181.33,74.5h-2.362v5.4a.706.706,0,0,1-.131.5.836.836,0,0,1-.563.131h-1.213a.833.833,0,0,1-.563-.131.706.706,0,0,1-.131-.5V65.719a.706.706,0,0,1,.131-.5.834.834,0,0,1,.563-.13H181.7a5.5,5.5,0,0,1,3.76,1.083,4.395,4.395,0,0,1,1.2,3.424v.411q0,3.294-2.622,4.161l3.228,5.72a.67.67,0,0,1,.088.282q0,.346-.564.347h-1.625a.923.923,0,0,1-.52-.119,1.536,1.536,0,0,1-.39-.51Zm-2.362-7.152v4.9h2.709a2.46,2.46,0,0,0,1.776-.52,2.39,2.39,0,0,0,.521-1.734v-.3a2.586,2.586,0,0,0-.509-1.81,2.428,2.428,0,0,0-1.788-.531Z" transform="translate(-161.719 -64.744)" fill="#fff"/>
      <path id="Path_479" data-name="Path 479" d="M209.723,64.454q3.879,0,5.179,2.947a4.872,4.872,0,0,1,.39,1.4,15.418,15.418,0,0,1,.109,2.026v3.164a13.6,13.6,0,0,1-.119,1.94,6.811,6.811,0,0,1-.38,1.484,4.8,4.8,0,0,1-1.95,2.352,6.054,6.054,0,0,1-3.228.812q-3.879,0-5.179-2.947a4.883,4.883,0,0,1-.39-1.4,15.4,15.4,0,0,1-.109-2.026V71.041a13.593,13.593,0,0,1,.119-1.939,6.878,6.878,0,0,1,.38-1.484,4.8,4.8,0,0,1,1.95-2.351A6.051,6.051,0,0,1,209.723,64.454Zm0,2.319a2.673,2.673,0,0,0-2.286.91,5.113,5.113,0,0,0-.682,3.012v3.641a5.114,5.114,0,0,0,.682,3.012,3.326,3.326,0,0,0,4.572,0,5.118,5.118,0,0,0,.682-3.012V70.695a5.117,5.117,0,0,0-.682-3.012A2.675,2.675,0,0,0,209.723,66.773Z" transform="translate(-174.336 -64.454)" fill="#fff"/>
      <path id="Path_480" data-name="Path 480" d="M252.027,80.325l-3.749-6.587h-3.684v6.479a.268.268,0,0,1-.3.3h-.477a.268.268,0,0,1-.3-.3V65.394a.268.268,0,0,1,.3-.3h4.4q4.529,0,4.529,4.139v.347q0,3.532-3.337,4.03l3.75,6.458a.484.484,0,0,1,.108.26c0,.13-.072.2-.216.2h-.629A.407.407,0,0,1,252.027,80.325Zm-3.922-14.28h-3.511v6.74h3.511a3.959,3.959,0,0,0,2.7-.769,3.122,3.122,0,0,0,.856-2.438V69.23A3.087,3.087,0,0,0,250.8,66.8,4,4,0,0,0,248.105,66.044Z" transform="translate(-192.327 -64.744)" fill="#fff"/>
      <path id="Path_481" data-name="Path 481" d="M270.115,67.256a.849.849,0,0,1-.573-.195.627.627,0,0,1-.228-.5V66.3a.628.628,0,0,1,.228-.5.944.944,0,0,1,1.149,0,.628.628,0,0,1,.228.5v.26a.627.627,0,0,1-.228.5A.852.852,0,0,1,270.115,67.256Zm.5,2.666V80.453a.269.269,0,0,1-.3.3h-.454a.269.269,0,0,1-.3-.3V69.921a.269.269,0,0,1,.3-.3h.454A.269.269,0,0,1,270.615,69.921Z" transform="translate(-204.09 -64.981)" fill="#fff"/>
      <path id="Path_482" data-name="Path 482" d="M285.144,84.164a4.229,4.229,0,0,1-3.273-1.224,5.119,5.119,0,0,1-1.126-3.586V77.229a5.047,5.047,0,0,1,1.159-3.565,4.323,4.323,0,0,1,3.327-1.246,4.226,4.226,0,0,1,3.272,1.224,5.119,5.119,0,0,1,1.126,3.586v2.124a5.047,5.047,0,0,1-1.159,3.565A4.318,4.318,0,0,1,285.144,84.164Zm.043-.91q3.359,0,3.358-4.009V77.338q0-4.008-3.358-4.009t-3.359,4.009v1.907Q281.828,83.255,285.187,83.253Z" transform="translate(-209.301 -68.085)" fill="#fff"/>
      <path id="Path_483" data-name="Path 483" d="M324.268,79.87v.347a.268.268,0,0,1-.3.3h-7.975a.249.249,0,0,1-.282-.282V65.394a.268.268,0,0,1,.3-.3h7.8a.268.268,0,0,1,.3.3v.347a.267.267,0,0,1-.3.3h-7.022v6.068h6.545a.268.268,0,0,1,.3.3v.347a.268.268,0,0,1-.3.3h-6.545v6.5h7.173A.268.268,0,0,1,324.268,79.87Z" transform="translate(-225.239 -64.744)" fill="#fff"/>
      <path id="Path_484" data-name="Path 484" d="M345.313,72.419a3.631,3.631,0,0,1,2.752,1,4.043,4.043,0,0,1,.953,2.9v7.238a.268.268,0,0,1-.3.3h-.454a.269.269,0,0,1-.3-.3V76.492q0-3.12-2.772-3.121a3.269,3.269,0,0,0-2.515.954,3.828,3.828,0,0,0-.888,2.709v6.523a.269.269,0,0,1-.3.3h-.454a.269.269,0,0,1-.3-.3V73.026a.269.269,0,0,1,.3-.3h.433a.268.268,0,0,1,.3.3V74.3a2.841,2.841,0,0,1,1.343-1.386A4.7,4.7,0,0,1,345.313,72.419Z" transform="translate(-236.64 -68.085)" fill="#fff"/>
      <path id="Path_485" data-name="Path 485" d="M373.235,78.551h-7.281v.672q0,4.03,3.358,4.03a3.582,3.582,0,0,0,1.841-.411,2.817,2.817,0,0,0,1.105-1.343.39.39,0,0,1,.347-.26H373c.2,0,.3.087.3.26a1.724,1.724,0,0,1-.249.748,3.35,3.35,0,0,1-.574.791,4.282,4.282,0,0,1-3.229,1.126,4.163,4.163,0,0,1-3.24-1.224,5.151,5.151,0,0,1-1.116-3.586V77.446a5.449,5.449,0,0,1,1.149-3.727,4.188,4.188,0,0,1,3.315-1.3,3.926,3.926,0,0,1,3.121,1.213,5.254,5.254,0,0,1,1.061,3.554v1.062A.268.268,0,0,1,373.235,78.551Zm-3.9-5.244q-3.381,0-3.38,4.226v.13h6.566v-.434Q372.52,73.307,369.334,73.307Z" transform="translate(-247.66 -68.085)" fill="#fff"/>
      <path id="Path_486" data-name="Path 486" d="M390.859,73.28V75.1a3.6,3.6,0,0,1,3.49-2.124h.347a.268.268,0,0,1,.3.3v.433a.268.268,0,0,1-.3.3h-.411a3.01,3.01,0,0,0-2.525,1.127,5.278,5.278,0,0,0-.878,3.293v5.374a.269.269,0,0,1-.3.3h-.454a.269.269,0,0,1-.3-.3V73.28a.269.269,0,0,1,.3-.3h.433A.268.268,0,0,1,390.859,73.28Z" transform="translate(-259.023 -68.339)" fill="#fff"/>
      <path id="Path_487" data-name="Path 487" d="M407.427,85.529q.477,1.43,2.861,1.431a3.719,3.719,0,0,0,2.622-.78,3.3,3.3,0,0,0,.824-2.492V82.149q-.759,1.8-3.467,1.8-4.357,0-4.356-4.963V77.143a4.912,4.912,0,0,1,1.149-3.51,4.346,4.346,0,0,1,3.315-1.213,4.277,4.277,0,0,1,3.294,1.213,5.013,5.013,0,0,1,1.126,3.532v6.523q0,4.181-4.528,4.182a6.93,6.93,0,0,1-1.788-.217,3.193,3.193,0,0,1-1.268-.607,2.8,2.8,0,0,1-.6-.726,1.532,1.532,0,0,1-.228-.748.268.268,0,0,1,.3-.3h.389A.339.339,0,0,1,407.427,85.529Zm-.433-8.277v1.82q0,3.923,3.359,3.922,3.38,0,3.381-3.922v-1.82q0-3.923-3.381-3.923Q406.993,73.329,406.993,77.252Z" transform="translate(-266.358 -68.085)" fill="#fff"/>
      <path id="Path_488" data-name="Path 488" d="M432.2,67.256a.849.849,0,0,1-.574-.195.626.626,0,0,1-.227-.5V66.3a.627.627,0,0,1,.227-.5.944.944,0,0,1,1.149,0,.628.628,0,0,1,.228.5v.26a.627.627,0,0,1-.228.5A.852.852,0,0,1,432.2,67.256Zm.5,2.666V80.453a.269.269,0,0,1-.3.3h-.454a.268.268,0,0,1-.3-.3V69.921a.268.268,0,0,1,.3-.3h.454A.269.269,0,0,1,432.7,69.921Z" transform="translate(-277.977 -64.981)" fill="#fff"/>
      <path id="Path_489" data-name="Path 489" d="M446.85,77.207q.627,0,1.387.076t1.43.184V75.734a2.206,2.206,0,0,0-.683-1.787,3.276,3.276,0,0,0-2.134-.575,5.162,5.162,0,0,0-1.323.141,1.935,1.935,0,0,0-.878.5,3.987,3.987,0,0,0-.682.985.39.39,0,0,1-.347.26h-.389c-.2,0-.3-.087-.3-.26a1.665,1.665,0,0,1,.238-.747,3.149,3.149,0,0,1,.542-.748,3.609,3.609,0,0,1,1.322-.823,5.355,5.355,0,0,1,1.777-.26q3.921,0,3.922,3.337v4.421a3.946,3.946,0,0,1-.975,2.98,4.477,4.477,0,0,1-3.142.921h-.174a4.757,4.757,0,0,1-3.066-.791,3.923,3.923,0,0,1,.119-5.233A5.389,5.389,0,0,1,446.85,77.207Zm-.087.91a4.124,4.124,0,0,0-2.5.6,2.33,2.33,0,0,0-.77,1.962,2.365,2.365,0,0,0,.694,1.907,3.441,3.441,0,0,0,2.232.585h.173a3.425,3.425,0,0,0,2.384-.661,3.044,3.044,0,0,0,.694-2.265V78.378q-.8-.13-1.561-.2T446.763,78.118Z" transform="translate(-283.006 -68.085)" fill="#fff"/>
    </g>
    <path id="Path_490" data-name="Path 490" d="M76.67,55.923H79.4v2.732H76.67Z" transform="translate(-50.002 -41.547)" fill="#ffcd00"/>
    <path id="Path_491" data-name="Path 491" d="M76.669,101.1H79.4v2.732H76.669Z" transform="translate(-50.001 -62.142)" fill="#eb1928"/>
    <path id="Path_492" data-name="Path 492" d="M99.257,78.513h2.732v2.732H99.257Z" transform="translate(-60.298 -51.845)" fill="#f05a28"/>
    <path id="Path_493" data-name="Path 493" d="M54.08,78.513h2.731v2.732H54.08Z" transform="translate(-39.704 -51.845)" fill="#f05a28"/>
    <path id="Path_494" data-name="Path 494" d="M75.436,44.122H79.51V48.2H75.436Z" transform="translate(-49.439 -36.167)" fill="#ffcd00"/>
    <path id="Path_495" data-name="Path 495" d="M75.437,110.436H79.51v4.073H75.437Z" transform="translate(-49.44 -66.397)" fill="#eb1928"/>
    <path id="Path_496" data-name="Path 496" d="M108.592,77.28h4.073v4.073h-4.073Z" transform="translate(-64.554 -51.283)" fill="#f05a28"/>
    <path id="Path_497" data-name="Path 497" d="M42.278,77.28h4.073v4.073H42.278Z" transform="translate(-34.324 -51.283)" fill="#f05a28"/>
    <path id="Path_498" data-name="Path 498" d="M74.028,29.5h5.606V35.11H74.028Z" transform="translate(-48.797 -29.503)" fill="#ffcd00"/>
    <path id="Path_499" data-name="Path 499" d="M74.028,122.237h5.607v5.607H74.028Z" transform="translate(-48.797 -71.777)" fill="#eb1928"/>
    <path id="Path_500" data-name="Path 500" d="M120.393,75.872H126v5.607h-5.607Z" transform="translate(-69.933 -50.641)" fill="#f05a28"/>
    <path id="Path_501" data-name="Path 501" d="M27.66,75.872h5.606v5.607H27.66Z" transform="translate(-27.66 -50.641)" fill="#f05a28"/>
    <path id="Path_502" data-name="Path 502" d="M93.534,61.5l1.931,1.931-1.931,1.932L91.6,63.432Z" transform="translate(-56.809 -44.09)" fill="#faaf41"/>
    <path id="Path_503" data-name="Path 503" d="M61.588,93.446l1.932,1.931-1.932,1.932-1.931-1.932Z" transform="translate(-42.246 -58.652)" fill="#eb4128"/>
    <path id="Path_504" data-name="Path 504" d="M93.533,93.446l1.931,1.931-1.931,1.932L91.6,95.377Z" transform="translate(-56.808 -58.652)" fill="#eb4128"/>
    <path id="Path_505" data-name="Path 505" d="M61.587,61.5l1.932,1.932-1.932,1.931-1.931-1.931Z" transform="translate(-42.246 -44.089)" fill="#faaf41"/>
    <path id="Path_506" data-name="Path 506" d="M100.212,52.284l2.88,2.88-2.88,2.881-2.881-2.881Z" transform="translate(-59.42 -39.888)" fill="#faaf41"/>
    <path id="Path_507" data-name="Path 507" d="M53.321,99.175l2.88,2.88-2.88,2.881-2.881-2.881Z" transform="translate(-38.045 -61.264)" fill="#eb4128"/>
    <path id="Path_508" data-name="Path 508" d="M100.21,99.175l2.88,2.88-2.88,2.881-2.88-2.881Z" transform="translate(-59.42 -61.264)" fill="#eb4128"/>
    <path id="Path_509" data-name="Path 509" d="M53.319,52.284l2.88,2.88-2.88,2.881-2.88-2.881Z" transform="translate(-38.044 -39.888)" fill="#faaf41"/>
    <path id="Path_510" data-name="Path 510" d="M108.645,40.951l3.964,3.965-3.964,3.964-3.965-3.964Z" transform="translate(-62.77 -34.722)" fill="#faaf41"/>
    <path id="Path_511" data-name="Path 511" d="M43.072,106.524l3.965,3.965-3.965,3.964-3.965-3.964Z" transform="translate(-32.878 -64.614)" fill="#eb4128"/>
    <path id="Path_512" data-name="Path 512" d="M108.643,106.524l3.964,3.965-3.964,3.964-3.965-3.964Z" transform="translate(-62.769 -64.614)" fill="#eb4128"/>
    <path id="Path_513" data-name="Path 513" d="M43.07,40.951l3.965,3.965L43.07,48.88,39.1,44.916Z" transform="translate(-32.877 -34.722)" fill="#faaf41"/>
  </g>
</svg>
