<svg id="np_public_2556806_FFFFFF" xmlns="http://www.w3.org/2000/svg" width="75.053" height="68.927" viewBox="0 0 75.053 68.927">
  <path id="Path_650" data-name="Path 650" d="M16.114,73.9h-5.3a7.59,7.59,0,0,0-7.509,6.639L2.6,86.7a1.573,1.573,0,0,0,1.186,1.738,48.176,48.176,0,0,0,9.723,1.028,43.048,43.048,0,0,0,9.723-1.028A1.509,1.509,0,0,0,24.417,86.7l-.71-6.166A7.735,7.735,0,0,0,16.114,73.9Z" transform="translate(-2.59 -20.543)" fill="#faaf41"/>
  <path id="Path_651" data-name="Path 651" d="M21.529,59.915A7.114,7.114,0,1,1,14.415,52.8a7.116,7.116,0,0,1,7.114,7.114" transform="translate(-3.577 -16.122)" fill="#faaf41"/>
  <path id="Path_652" data-name="Path 652" d="M49.813,73.9h-5.3a7.59,7.59,0,0,0-7.509,6.639L36.3,86.7a1.573,1.573,0,0,0,1.186,1.738,48.176,48.176,0,0,0,9.723,1.028,43.048,43.048,0,0,0,9.723-1.028A1.509,1.509,0,0,0,58.116,86.7l-.71-6.166A7.735,7.735,0,0,0,49.813,73.9Z" transform="translate(-9.651 -20.543)" fill="#faaf41"/>
  <path id="Path_653" data-name="Path 653" d="M55.228,59.915A7.114,7.114,0,1,1,48.114,52.8a7.116,7.116,0,0,1,7.114,7.114" transform="translate(-10.639 -16.122)" fill="#faaf41"/>
  <path id="Path_654" data-name="Path 654" d="M83.415,73.9h-5.3a7.59,7.59,0,0,0-7.509,6.639L69.9,86.7a1.573,1.573,0,0,0,1.186,1.738,48.176,48.176,0,0,0,9.723,1.028,43.047,43.047,0,0,0,9.723-1.028A1.509,1.509,0,0,0,91.718,86.7l-.71-6.166A7.618,7.618,0,0,0,83.415,73.9Z" transform="translate(-16.692 -20.543)" fill="#faaf41"/>
  <path id="Path_655" data-name="Path 655" d="M88.927,59.915A7.114,7.114,0,1,1,81.813,52.8a7.114,7.114,0,0,1,7.114,7.114" transform="translate(-17.7 -16.122)" fill="#faaf41"/>
  <path id="Path_656" data-name="Path 656" d="M16.114,27.5h-5.3a7.59,7.59,0,0,0-7.509,6.639L2.6,40.3a1.573,1.573,0,0,0,1.186,1.738,48.176,48.176,0,0,0,9.723,1.028,43.048,43.048,0,0,0,9.723-1.028A1.509,1.509,0,0,0,24.417,40.3l-.71-6.166A7.735,7.735,0,0,0,16.114,27.5Z" transform="translate(-2.59 -10.82)" fill="#faaf41"/>
  <path id="Path_657" data-name="Path 657" d="M21.529,13.512A7.114,7.114,0,1,1,14.415,6.4a7.114,7.114,0,0,1,7.114,7.114" transform="translate(-3.577 -6.398)" fill="#faaf41"/>
  <path id="Path_658" data-name="Path 658" d="M49.813,27.5h-5.3a7.59,7.59,0,0,0-7.509,6.639L36.3,40.3a1.573,1.573,0,0,0,1.186,1.738,48.176,48.176,0,0,0,9.723,1.028,43.048,43.048,0,0,0,9.723-1.028A1.509,1.509,0,0,0,58.116,40.3l-.71-6.166A7.735,7.735,0,0,0,49.813,27.5Z" transform="translate(-9.651 -10.82)" fill="#faaf41"/>
  <path id="Path_659" data-name="Path 659" d="M55.228,13.512A7.114,7.114,0,1,1,48.114,6.4a7.114,7.114,0,0,1,7.114,7.114" transform="translate(-10.639 -6.398)" fill="#faaf41"/>
  <path id="Path_660" data-name="Path 660" d="M71.091,42.043a48.176,48.176,0,0,0,9.723,1.028,43.047,43.047,0,0,0,9.723-1.028A1.509,1.509,0,0,0,91.723,40.3l-.71-6.166A7.587,7.587,0,0,0,83.5,27.5h-5.3A7.59,7.59,0,0,0,70.7,34.138l-.71,6.166a1.394,1.394,0,0,0,1.1,1.738Z" transform="translate(-16.702 -10.82)" fill="#faaf41"/>
  <path id="Path_661" data-name="Path 661" d="M88.927,13.512A7.114,7.114,0,1,1,81.813,6.4a7.112,7.112,0,0,1,7.114,7.114" transform="translate(-17.7 -6.398)" fill="#faaf41"/>
</svg>
