<svg xmlns="http://www.w3.org/2000/svg" width="205.605" height="373.834" viewBox="0 0 205.605 373.834">
  <g id="Group_982" data-name="Group 982" transform="translate(0 -0.001)" opacity="0.289">
    <path id="Path_518" data-name="Path 518" d="M271.057,337.02H252.844v18.213h18.213Z" transform="translate(-75.037 -241.165)" fill="#fff"/>
    <path id="Path_519" data-name="Path 519" d="M271.057,399.469H252.844v18.213h18.213Z" transform="translate(-75.037 -139.703)" fill="#fff"/>
    <path id="Path_520" data-name="Path 520" d="M302.28,368.246H284.067v18.21H302.28Z" transform="translate(-188.212 -190.431)" fill="#fff"/>
    <path id="Path_522" data-name="Path 522" d="M278.3,320.707H251.14v27.16H278.3Z" transform="translate(-77.808 -267.668)" fill="#fff"/>
    <path id="Path_523" data-name="Path 523" d="M278.3,412.373H251.14v27.161H278.3Z" transform="translate(-77.808 -118.738)" fill="#fff"/>
    <path id="Path_524" data-name="Path 524" d="M324.132,366.542H296.971V393.7h27.161Z" transform="translate(-243.934 -193.2)" fill="#fff"/>
    <path id="Path_526" data-name="Path 526" d="M286.576,300.5H249.192v37.381h37.384Z" transform="translate(-80.971 -300.499)" fill="#fff"/>
    <path id="Path_530" data-name="Path 530" d="M286.366,344.729l-12.88,12.879,12.88,12.877,12.877-12.877Z" transform="translate(-157.402 -228.641)" fill="#fff"/>
    <path id="Path_532" data-name="Path 532" d="M286.363,388.887l-12.88,12.88,12.88,12.877,12.877-12.877Z" transform="translate(-157.395 -156.897)" fill="#fff"/>
    <path id="Path_534" data-name="Path 534" d="M300.61,331.989l-19.205,19.2,19.205,19.2,19.205-19.2Z" transform="translate(-198.76 -249.339)" fill="#fff"/>
    <path id="Path_536" data-name="Path 536" d="M300.608,396.807l-19.205,19.2,19.205,19.205,19.205-19.205Z" transform="translate(-198.753 -144.029)" fill="#fff"/>
    <path id="Path_538" data-name="Path 538" d="M318,316.323l-26.434,26.434L318,369.193l26.436-26.436Z" transform="translate(-250.037 -274.792)" fill="#fff"/>
    <path id="Path_540" data-name="Path 540" d="M317.994,406.965,291.56,433.4l26.434,26.433L344.427,433.4Z" transform="translate(-250.027 -127.524)" fill="#fff"/>
    <path id="Path_527" data-name="Path 527" d="M286.577,428.685H249.193v37.384h37.384Z" transform="translate(-80.975 -92.234)" fill="#fff"/>
    <path id="Path_528" data-name="Path 528" d="M350.665,364.595H313.284v37.384h37.381Z" transform="translate(-313.284 -196.364)" fill="#fff"/>
  </g>
</svg>
